<?xml version="1.0" standalone="no"?>
<!DOCTYPE svg PUBLIC "-//W3C//DTD SVG 20010904//EN"
 "http://www.w3.org/TR/2001/REC-SVG-20010904/DTD/svg10.dtd">
<svg version="1.0" xmlns="http://www.w3.org/2000/svg"
 width="1024.000000pt" height="1024.000000pt" viewBox="0 0 1024.000000 1024.000000"
 preserveAspectRatio="xMidYMid meet">
<metadata>
Created by potrace 1.14, written by Peter Selinger 2001-2017
</metadata>
<g transform="translate(0.000000,1024.000000) scale(0.100000,-0.100000)"
fill="#000000" stroke="none">
<path d="M7555 7248 c-277 -31 -525 -131 -760 -305 -86 -64 -291 -247 -309
-276 -9 -15 27 -55 261 -289 l271 -271 74 67 c164 151 305 244 412 272 65 18
206 18 271 0 111 -29 225 -117 271 -208 60 -119 71 -334 24 -483 -88 -277
-336 -595 -865 -1106 -250 -242 -639 -608 -666 -627 -18 -12 -19 -29 -19 -308
l0 -294 1370 0 1370 0 -2 428 -3 427 -395 -1 c-367 0 -623 -13 -820 -41 l-45
-6 109 114 c132 138 335 368 434 493 279 349 473 718 523 996 8 42 13 137 13
215 -2 342 -107 612 -324 839 -236 246 -588 379 -990 375 -69 -1 -161 -6 -205
-11z"/>
<path d="M2230 6444 c-688 -108 -1191 -579 -1299 -1215 -40 -234 -36 -494 10
-724 118 -588 530 -999 1124 -1125 144 -30 402 -38 558 -16 156 22 325 65 427
110 81 35 245 138 307 193 l32 28 -196 331 -196 331 -81 -50 c-45 -28 -109
-63 -144 -79 -226 -103 -453 -67 -616 98 -149 150 -216 362 -203 639 11 226
74 391 197 516 112 115 245 164 420 157 81 -3 105 -8 160 -34 36 -17 86 -47
112 -67 l47 -36 237 325 c188 258 234 327 225 338 -39 46 -248 168 -373 216
-141 55 -243 72 -453 76 -145 2 -226 -1 -295 -12z"/>
<path d="M4680 6440 c-333 -60 -641 -235 -848 -482 -240 -285 -346 -575 -359
-979 -17 -513 118 -889 432 -1204 200 -200 450 -335 738 -397 85 -18 135 -22
297 -23 169 0 209 3 299 23 295 66 537 197 741 402 207 206 340 455 400 746
76 367 31 814 -111 1096 -211 423 -555 700 -997 804 -151 36 -437 43 -592 14z
m422 -827 c169 -76 268 -337 268 -708 0 -212 -32 -391 -94 -521 -45 -94 -92
-145 -168 -180 -57 -26 -73 -29 -168 -29 -92 0 -112 3 -161 27 -135 62 -213
205 -249 453 -13 90 -13 409 0 500 38 267 133 420 289 470 68 22 222 15 283
-12z"/>
</g>
</svg>
