<?xml version="1.0" standalone="no"?>
<!DOCTYPE svg PUBLIC "-//W3C//DTD SVG 20010904//EN"
 "http://www.w3.org/TR/2001/REC-SVG-20010904/DTD/svg10.dtd">
<svg version="1.0" xmlns="http://www.w3.org/2000/svg"
 width="1024.000000pt" height="1024.000000pt" viewBox="0 0 1024.000000 1024.000000"
 preserveAspectRatio="xMidYMid meet">
<metadata>
Created by potrace 1.14, written by Peter Selinger 2001-2017
</metadata>
<g transform="translate(0.000000,1024.000000) scale(0.100000,-0.100000)"
fill="#000000" stroke="none">
<path d="M7720 7380 c-363 -23 -664 -143 -959 -383 -97 -79 -261 -237 -261
-251 0 -6 128 -139 285 -296 l284 -284 68 65 c79 76 205 178 280 225 87 57
190 85 302 85 164 0 277 -45 369 -146 147 -163 160 -458 32 -733 -81 -172
-255 -406 -497 -667 -130 -140 -631 -626 -925 -896 l-156 -144 -1 -307 -1
-308 1440 0 1440 0 0 450 0 450 -399 0 c-312 0 -450 -4 -637 -20 -132 -11
-249 -22 -262 -25 -16 -4 24 45 129 157 444 477 667 779 839 1141 108 226 143
375 143 597 0 300 -65 526 -215 748 -171 253 -460 439 -799 513 -73 16 -339
42 -374 37 -5 0 -62 -4 -125 -8z"/>
<path d="M2256 6539 c-436 -39 -852 -241 -1118 -544 -262 -300 -388 -651 -388
-1087 0 -414 106 -776 304 -1038 368 -488 987 -699 1656 -564 68 14 157 36
198 50 135 45 302 139 414 232 l47 40 -205 348 c-113 192 -207 350 -208 351
-1 1 -33 -19 -71 -43 -178 -115 -316 -160 -465 -151 -141 9 -233 51 -343 155
-167 160 -248 432 -218 732 15 140 35 219 81 315 87 180 224 292 406 330 174
37 307 9 443 -93 l54 -41 244 337 c135 185 247 341 249 347 6 14 -89 84 -198
148 -170 98 -365 159 -568 177 -130 11 -173 11 -314 -1z"/>
<path d="M4790 6539 c-227 -22 -494 -111 -674 -227 -229 -147 -462 -410 -570
-644 -103 -223 -156 -481 -156 -763 0 -506 154 -893 481 -1210 411 -398 1015
-533 1567 -349 522 173 911 616 1022 1162 58 290 47 639 -30 919 -38 135 -145
353 -237 483 -256 357 -667 590 -1113 630 -128 11 -167 11 -290 -1z m321 -891
c138 -64 232 -239 268 -503 14 -99 14 -381 0 -482 -24 -179 -81 -336 -152
-418 -69 -80 -186 -122 -316 -112 -102 8 -161 30 -222 85 -66 59 -93 103 -129
210 -47 140 -63 261 -63 477 0 457 105 697 332 762 74 21 216 11 282 -19z"/>
</g>
</svg>
